<mxfile host="app.diagrams.net" modified="2023-05-24T10:47:48.412Z" agent="Mozilla/5.0 (Windows NT 10.0; Win64; x64) AppleWebKit/537.36 (KHTML, like Gecko) Chrome/115.0.0.0 Safari/537.36 Edg/115.0.0.0" version="21.3.3" etag="H1A88Ez-GGmzwz6h4u21" type="github">
  <diagram name="第 1 页" id="x0i7qrErQjH_GwH-AZZz">
    <mxGraphModel>
      <root>
        <mxCell id="0" />
        <mxCell id="1" parent="0" />
      </root>
    </mxGraphModel>
  </diagram>
</mxfile>
